<svg xmlns="http://www.w3.org/2000/svg" viewBox="0 0 141.46 66.66"><defs><style>.cls-1{fill:#2a2a2a;}.cls-2{fill:#f38958;}.cls-3{fill:#6f8d72;}.cls-4{fill:#fc6c6b;}.cls-5{fill:#e52e2c;}.cls-6{fill:#385156;}</style></defs><title>Asset 2</title><g id="Layer_2" data-name="Layer 2"><g id="Layer_1-2" data-name="Layer 1"><path class="cls-1" d="M.32 32.24H6a8.72 8.72 0 0 1 5.2 1.29A4.11 4.11 0 0 1 12.92 37a3.71 3.71 0 0 1-.92 2.4A5.57 5.57 0 0 1 9.45 41a6.23 6.23 0 0 1 3 1.74 4 4 0 0 1 1 2.71q0 5.16-7.79 5.16H.32zm4.48 7.7h1.25a2.39 2.39 0 0 0 1.51-.52 2.25 2.25 0 0 0 .67-1.87 2.71 2.71 0 0 0-.53-1.78 2.16 2.16 0 0 0-1.75-.64h-.67a3.19 3.19 0 0 0-.47 0zm0 7.74h1.33a4.58 4.58 0 0 0 1-.11 2.23 2.23 0 0 0 .87-.36 1.75 1.75 0 0 0 .56-.71 2.72 2.72 0 0 0 .2-1.13 3.62 3.62 0 0 0-.14-1 2.13 2.13 0 0 0-.46-.84 2.27 2.27 0 0 0-.87-.53A3.41 3.41 0 0 0 6 42.74H4.81zM16.18 41a6.53 6.53 0 0 1 1.47-2.33 6.32 6.32 0 0 1 2.19-1.42 7.39 7.39 0 0 1 2.71-.49 6.67 6.67 0 0 1 2.17.31 3.9 3.9 0 0 1 1.47.87A3.46 3.46 0 0 1 27 39.2a4.7 4.7 0 0 1 .27 1.62 3.7 3.7 0 0 1-.49 1.85 4.85 4.85 0 0 1-1.4 1.53 8 8 0 0 1-2.2 1.1 12.35 12.35 0 0 1-2.92.57 2.67 2.67 0 0 0 .74 1.31 2.09 2.09 0 0 0 1.53.5 6.49 6.49 0 0 0 1.28-.14q.68-.13 1.25-.3t1.33-.43l.81 2.82a11.78 11.78 0 0 1-1.6.63q-.73.22-1.7.41a10.64 10.64 0 0 1-2 .19 7.42 7.42 0 0 1-2.9-.49A5 5 0 0 1 17.08 49 5.34 5.34 0 0 1 16 46.91a10.26 10.26 0 0 1-.34-2.73 9.05 9.05 0 0 1 .52-3.18zm4.94-.88a2.1 2.1 0 0 0-.58.79 4.74 4.74 0 0 0-.33 1.09 8.82 8.82 0 0 0-.14 1.17 4.17 4.17 0 0 0 1.37-.25 2.85 2.85 0 0 0 .91-.54 2.07 2.07 0 0 0 .52-.71 1.81 1.81 0 0 0 .16-.71 1.18 1.18 0 0 0-.29-.83 1 1 0 0 0-.75-.31 1.36 1.36 0 0 0-.87.26zM29.07 37.09h2.23l.46-2.8 3.72-.81v3.61h3.2l-.52 3.15h-2.69v6.06q0 1.19 1.25 1.19a6.09 6.09 0 0 0 1.3-.14l.65-.16.73 2.88q-.54.19-1.51.42a10.27 10.27 0 0 1-2.35.23 5.32 5.32 0 0 1-3.19-.84A3.29 3.29 0 0 1 31.21 47v-6.76h-2.14zM40.53 37.09h2.23l.46-2.8 3.72-.81v3.61h3.2l-.52 3.15h-2.69v6.06q0 1.19 1.25 1.19a6.09 6.09 0 0 0 1.3-.14l.65-.16.73 2.88q-.54.19-1.51.42a10.27 10.27 0 0 1-2.35.23 5.32 5.32 0 0 1-3.19-.84A3.29 3.29 0 0 1 42.67 47v-6.76h-2.14zM52.6 41a6.53 6.53 0 0 1 1.47-2.33 6.32 6.32 0 0 1 2.19-1.42 7.39 7.39 0 0 1 2.74-.54 6.67 6.67 0 0 1 2.17.31 3.9 3.9 0 0 1 1.47.87 3.46 3.46 0 0 1 .84 1.3 4.7 4.7 0 0 1 .27 1.62 3.7 3.7 0 0 1-.49 1.85 4.85 4.85 0 0 1-1.4 1.53 8 8 0 0 1-2.2 1.1 12.35 12.35 0 0 1-2.92.57 2.67 2.67 0 0 0 .69 1.32 2.09 2.09 0 0 0 1.53.5 6.49 6.49 0 0 0 1.28-.14q.68-.13 1.25-.3t1.33-.43l.81 2.82a11.78 11.78 0 0 1-1.6.63q-.73.22-1.7.41a10.64 10.64 0 0 1-2 .19 7.42 7.42 0 0 1-2.84-.49A5 5 0 0 1 53.5 49a5.34 5.34 0 0 1-1.09-2.1 10.26 10.26 0 0 1-.34-2.73A9.05 9.05 0 0 1 52.6 41zm4.94-.88a2.1 2.1 0 0 0-.58.79 4.74 4.74 0 0 0-.33 1.09 8.82 8.82 0 0 0-.14 1.17 4.17 4.17 0 0 0 1.37-.25 2.85 2.85 0 0 0 .91-.54 2.07 2.07 0 0 0 .52-.71 1.81 1.81 0 0 0 .16-.71 1.18 1.18 0 0 0-.29-.83 1 1 0 0 0-.75-.31 1.36 1.36 0 0 0-.87.26zM72.45 41.06a2.28 2.28 0 0 0-.68.5 2.74 2.74 0 0 0-.54.87 3.32 3.32 0 0 0-.23 1.26v6.92h-4.27v-7.06a13.19 13.19 0 0 0-.23-2.7 9.3 9.3 0 0 0-.5-1.75 4.56 4.56 0 0 0-.73-1.22l3.45-1.09q.22.27.46.62a7.36 7.36 0 0 1 .41.76 5.21 5.21 0 0 1 .35 1.06 4.59 4.59 0 0 1 1.62-1.87 4.17 4.17 0 0 1 2.21-.57 5 5 0 0 1 1 .09 5.85 5.85 0 0 1 .75.2l-1.11 4.1a2.53 2.53 0 0 0-.5-.2 2.68 2.68 0 0 0-.77-.1 1.57 1.57 0 0 0-.69.18zM93.87 32.64a6.62 6.62 0 0 1 2.55 1.85 7.6 7.6 0 0 1 1.48 2.92 14.57 14.57 0 0 1 .48 3.87 13.34 13.34 0 0 1-.53 3.87 8.27 8.27 0 0 1-1.59 3 7.15 7.15 0 0 1-2.66 1.94 9.45 9.45 0 0 1-3.77.69 10.15 10.15 0 0 1-3.71-.61 6.32 6.32 0 0 1-2.56-1.79 7.48 7.48 0 0 1-1.48-2.86 14.18 14.18 0 0 1-.48-3.85 13.62 13.62 0 0 1 .53-3.9 8.68 8.68 0 0 1 1.59-3.07 7.06 7.06 0 0 1 2.67-2 10.64 10.64 0 0 1 7.48-.05zm-6.64 4.17a10.55 10.55 0 0 0-.8 4.55 16.5 16.5 0 0 0 .18 2.52 6.53 6.53 0 0 0 .6 2 3.2 3.2 0 0 0 1.15 1.29 3.4 3.4 0 0 0 1.85.46A2.66 2.66 0 0 0 92.76 46a10.24 10.24 0 0 0 .79-4.48 17.18 17.18 0 0 0-.18-2.52 6.93 6.93 0 0 0-.6-2 3.08 3.08 0 0 0-3-1.81 2.68 2.68 0 0 0-2.54 1.62zM110.91 50.83l-.16-.19a2.91 2.91 0 0 1-.38-.52 6.91 6.91 0 0 1-.43-.86 5 5 0 0 1-.33-1.15 4.22 4.22 0 0 1-1.36 2 3.75 3.75 0 0 1-2.36.69 5.19 5.19 0 0 1-2.32-.49 4.47 4.47 0 0 1-1.64-1.37 6 6 0 0 1-1-2.13 11.42 11.42 0 0 1-.31-2.77 8.08 8.08 0 0 1 .5-2.88 6.91 6.91 0 0 1 1.4-2.29 6.35 6.35 0 0 1 2.14-1.51 6.88 6.88 0 0 1 2.77-.54h.53l.58.05V31l4.29.71v12.4a13.15 13.15 0 0 0 .23 2.69 10.48 10.48 0 0 0 .5 1.75 3.35 3.35 0 0 0 .52.94l.24.3zm-3.54-3.56a3 3 0 0 0 .64-1 6.11 6.11 0 0 0 .42-1.37 8.74 8.74 0 0 0 .15-1.64v-3.1A2.75 2.75 0 0 0 108 40a3.08 3.08 0 0 0-.58-.07 1.94 1.94 0 0 0-1.09.29 2 2 0 0 0-.69.79 4 4 0 0 0-.37 1.21 10 10 0 0 0-.11 1.52v1.45a5.4 5.4 0 0 0 .18 1.24 2.28 2.28 0 0 0 .42.87.94.94 0 0 0 .76.33 1.11 1.11 0 0 0 .85-.36zM126 50.83l-.16-.19a2.91 2.91 0 0 1-.38-.52 6.91 6.91 0 0 1-.43-.86 5 5 0 0 1-.33-1.15 4.22 4.22 0 0 1-1.36 2 3.75 3.75 0 0 1-2.36.69 5.19 5.19 0 0 1-2.32-.49 4.47 4.47 0 0 1-1.66-1.39 6 6 0 0 1-1-2.13 11.42 11.42 0 0 1-.31-2.77 8.08 8.08 0 0 1 .5-2.88 6.91 6.91 0 0 1 1.4-2.29 6.35 6.35 0 0 1 2.14-1.51 6.88 6.88 0 0 1 2.77-.54h.53l.58.05V31l4.29.71v12.4a13.15 13.15 0 0 0 .23 2.69 10.48 10.48 0 0 0 .5 1.75 3.35 3.35 0 0 0 .52.94l.24.3zm-3.54-3.56a3 3 0 0 0 .64-1 6.11 6.11 0 0 0 .42-1.37 8.74 8.74 0 0 0 .15-1.64v-3.1a2.75 2.75 0 0 0-.53-.15 3.08 3.08 0 0 0-.58-.07 1.94 1.94 0 0 0-1.09.29 2 2 0 0 0-.69.79 4 4 0 0 0-.37 1.21 10 10 0 0 0-.11 1.52v1.45a5.4 5.4 0 0 0 .18 1.24 2.28 2.28 0 0 0 .42.87.94.94 0 0 0 .76.33 1.11 1.11 0 0 0 .81-.37zM136.47 36.74a9.79 9.79 0 0 1 1.91.18 14.65 14.65 0 0 1 1.56.39q.79.27 1.44.57l-1.36 3-.56-.27-.73-.33a5.83 5.83 0 0 0-.83-.27 3.48 3.48 0 0 0-.84-.11 1.34 1.34 0 0 0-.73.19.66.66 0 0 0-.3.6 1.14 1.14 0 0 0 .56.85 6.61 6.61 0 0 0 1.48.8 7.23 7.23 0 0 1 2.51 1.66 3.51 3.51 0 0 1 .88 2.51 4.55 4.55 0 0 1-.31 1.67 3.93 3.93 0 0 1-.92 1.4 4.41 4.41 0 0 1-1.53 1 5.92 5.92 0 0 1-2.12.35 11.07 11.07 0 0 1-1.78-.14 12.69 12.69 0 0 1-1.52-.34q-.69-.2-1.24-.41a9 9 0 0 1-.87-.37l1.41-3.12a5.19 5.19 0 0 1 .47.24 8 8 0 0 0 .79.38 9 9 0 0 0 1 .34 3.38 3.38 0 0 0 1 .15 1.81 1.81 0 0 0 .94-.22.71.71 0 0 0 .37-.65 1.22 1.22 0 0 0-.45-.92 3.63 3.63 0 0 0-1.15-.68 7.53 7.53 0 0 1-2.92-1.83 3.74 3.74 0 0 1-.88-2.54 3.91 3.91 0 0 1 .33-1.6 3.64 3.64 0 0 1 1-1.28 4.6 4.6 0 0 1 1.51-.86 6 6 0 0 1 1.88-.34zM2.38 66a4.48 4.48 0 0 1-1.75-1.81 5.66 5.66 0 0 1-.63-2.7 5.75 5.75 0 0 1 .62-2.71 4.44 4.44 0 0 1 1.75-1.83A5.2 5.2 0 0 1 5 56.3a5.2 5.2 0 0 1 2.61.64 4.41 4.41 0 0 1 1.75 1.8 5.63 5.63 0 0 1 .64 2.69 5.83 5.83 0 0 1-.62 2.74A4.48 4.48 0 0 1 7.6 66a5.11 5.11 0 0 1-2.6.66A5.16 5.16 0 0 1 2.38 66zM7 63.86a3.57 3.57 0 0 0 .75-2.37 4.11 4.11 0 0 0-.34-1.71A2.53 2.53 0 0 0 5 58.23a2.53 2.53 0 0 0-2.4 1.54 4.09 4.09 0 0 0-.34 1.71 4 4 0 0 0 .34 1.71 2.65 2.65 0 0 0 1 1.15 2.54 2.54 0 0 0 1.4.41 2.46 2.46 0 0 0 2-.89zM12.72 56.42h6.14v1.9h-4v2.29h3.27v1.89h-3.22v4h-2.19zM25.65 56.42h6.14v1.9h-4v2.29h3.27v1.89h-3.22v4h-2.19zM36.08 66a4.48 4.48 0 0 1-1.76-1.83 5.66 5.66 0 0 1-.63-2.7 5.75 5.75 0 0 1 .62-2.71 4.44 4.44 0 0 1 1.75-1.83 5.63 5.63 0 0 1 5.24 0 4.41 4.41 0 0 1 1.7 1.81 5.63 5.63 0 0 1 .62 2.68 5.83 5.83 0 0 1-.62 2.74A4.48 4.48 0 0 1 41.3 66a5.55 5.55 0 0 1-5.22 0zm4.59-2.16a3.57 3.57 0 0 0 .75-2.37 4.11 4.11 0 0 0-.34-1.71 2.6 2.6 0 0 0-4.78 0 4.09 4.09 0 0 0-.3 1.73 4 4 0 0 0 .34 1.71 2.65 2.65 0 0 0 1 1.15 2.54 2.54 0 0 0 1.43.41 2.46 2.46 0 0 0 1.9-.9zM48.3 66a4.48 4.48 0 0 1-1.76-1.83 5.66 5.66 0 0 1-.63-2.7 5.75 5.75 0 0 1 .62-2.71 4.44 4.44 0 0 1 1.75-1.83 5.63 5.63 0 0 1 5.24 0 4.41 4.41 0 0 1 1.75 1.8 5.63 5.63 0 0 1 .62 2.68 5.83 5.83 0 0 1-.62 2.74A4.48 4.48 0 0 1 53.52 66a5.55 5.55 0 0 1-5.22 0zm4.59-2.16a3.57 3.57 0 0 0 .75-2.37 4.11 4.11 0 0 0-.34-1.71 2.6 2.6 0 0 0-4.78 0 4.09 4.09 0 0 0-.34 1.71 4 4 0 0 0 .34 1.71 2.65 2.65 0 0 0 1 1.15 2.54 2.54 0 0 0 1.43.41 2.46 2.46 0 0 0 1.94-.88zM60.41 58.32h-2.75v-1.9h7.66v1.9h-2.71v8.15h-2.2zM67.73 56.42h3.36a3.54 3.54 0 0 1 2.32.7 2.51 2.51 0 0 1-.34 4 2.26 2.26 0 0 1 1.58 2.23A2.9 2.9 0 0 1 74.2 65a3 3 0 0 1-1.26 1.09 4.1 4.1 0 0 1-1.82.39h-3.39zm2.85 4.09a1.77 1.77 0 0 0 1.17-.35 1.19 1.19 0 0 0 .42-1q0-1.12-1.39-1.12h-1v2.43zm.21 4.28a2 2 0 0 0 1.28-.38 1.24 1.24 0 0 0 .46-1 1.08 1.08 0 0 0-.39-.89A1.76 1.76 0 0 0 71 62.2h-1.18v2.59zM79.92 56.42h2.63l3.73 10H84l-.81-2.29h-4l-.77 2.29h-2.18zm2.63 5.88l-1.36-3.85-1.31 3.85zM88.5 56.42h2.19v8.15h3.62v1.9H88.5zM96.7 56.42h2.19v8.15h3.62v1.9H96.7z"/><path class="cls-2" d="M.15 18.57H6.4v9.28H.15z"/><path class="cls-3" d="M9.74 0h6.25v29.18H9.74z"/><path class="cls-4" d="M28.9 21.22h6.25v8.62H28.9z"/><path class="cls-5" d="M38.48 16.58h6.25v13.26h-6.25z"/><path class="cls-6" d="M19.32 7.96h6.25v24.53h-6.25z"/></g></g></svg>
